<svg xmlns:xlink="http://www.w3.org/1999/xlink" xmlns="http://www.w3.org/2000/svg" viewBox="0 0 145.771 49.904" data-component="svg" class="svg-icon svg-icon__main-logo transition-all logo logo--main opacity-0 absolute  animate-nav top-28" height="49.904" width="145.771" style="opacity: 1; top: 0px;"><defs><symbol id="main-logo" stroke="none" fill="none" data-viewbox="0 0 145.771 49.904">
      <!-- 0 0 145.771 49.904 -->
      <path d="M40.327,58.755c2.437,0,3.694,1.1,3.694,3.254s-1.257,3.24-3.694,3.24H37.769v3.557H35.952V58.755Zm-.076,4.874c1.317,0,1.938-.53,1.938-1.62s-.621-1.635-1.938-1.635H37.769v3.254ZM54.42,66.914H49.273l-.8,1.892H46.578L51,58.755H52.74l4.435,10.051H55.222Zm-2.589-6.1-1.892,4.511h3.814l-1.892-4.511Zm9.43,7.992V58.755h4.451c2.438,0,3.694,1.09,3.694,3.193a2.8,2.8,0,0,1-2.225,3.013l2.528,3.845H67.559l-2.241-3.679H63.078v3.679Zm4.391-5.3c1.3,0,1.922-.515,1.922-1.56s-.621-1.574-1.922-1.574H63.078v3.133Zm10.777,5.3V60.375H73.265v-1.62h8.129v1.62H78.246v8.432Zm15.849,0-4.95-8.069H87.3v8.069H85.542V58.755h2.5l4.647,7.508h.03V58.755h1.756V68.807Zm13.669-5.843v1.574h-4.526v2.65h5.616v1.62H99.6V58.755h7.433v1.62h-5.616v2.589Zm5.767,5.843V58.755h4.45c2.438,0,3.694,1.09,3.694,3.193a2.8,2.8,0,0,1-2.226,3.013l2.528,3.845h-2.149l-2.241-3.679H113.53v3.679Zm4.39-5.3c1.3,0,1.922-.515,1.922-1.56s-.62-1.574-1.922-1.574H113.53v3.133Zm15.2-4.1v1.923h-.09a4.3,4.3,0,0,0-3.133-1.105c-1.272,0-2.089.545-2.089,1.393,0,.711.53,1.075,2.226,1.242,2.679.272,3.663,1.2,3.663,3.042,0,1.923-1.454,3.058-3.936,3.058a6.31,6.31,0,0,1-3.77-.954V66.067h.091a5.26,5.26,0,0,0,3.633,1.271c1.393,0,2.18-.5,2.18-1.393,0-.772-.545-1.135-2.331-1.332-2.619-.288-3.557-1.136-3.557-2.892,0-1.938,1.5-3.118,3.921-3.118A5.761,5.761,0,0,1,131.3,59.406Z" transform="translate(-11.689 -19.054)" fill="currentColor"></path>
      <path d="M27.545,1.382h3.409v17.2h-.075L18.545.861H0v.521H3.451V26.85H0v.521H17.21v-.521H13.8V3.505h.074L30.542,27.37h1V1.382h3.406V.861H27.545ZM13.212,26.849H8.9V1.382h4.316ZM54.289,15.83a6.642,6.642,0,0,1,.7,3.2,8.489,8.489,0,0,1-.757,3.537,8.853,8.853,0,0,1-2.136,2.93,10.531,10.531,0,0,1-3.287,2,11.669,11.669,0,0,1-4.25.741A11.971,11.971,0,0,1,42.236,28q-1.153-.229-2.155-.476t-1.775-.474a4.512,4.512,0,0,0-1.153-.229A1.277,1.277,0,0,0,36.4,27a1.52,1.52,0,0,0-.416.7h-.6V19.248h.566q.077.459.265,1.2a11.336,11.336,0,0,0,.549,1.6,12.849,12.849,0,0,0,.906,1.749,8.39,8.39,0,0,0,1.341,1.655,7.85,7.85,0,0,0,1.68,1.331,7.178,7.178,0,0,0,1.551.666,5.733,5.733,0,0,0,1.4.228c.44.013.854.02,1.228.02a7.486,7.486,0,0,0,3.287-.628,5.842,5.842,0,0,0,2.021-1.542,5.65,5.65,0,0,0,1.04-1.922,6.3,6.3,0,0,0,.3-1.769,3.855,3.855,0,0,0-.668-2.319,5.323,5.323,0,0,0-1.758-1.521,12.6,12.6,0,0,0-2.492-1.027l-2.873-.854a27.348,27.348,0,0,1-2.87-1.027,9.5,9.5,0,0,1-2.492-1.52,6.9,6.9,0,0,1-1.758-2.3,7.817,7.817,0,0,1-.662-3.417,6.658,6.658,0,0,1,.682-2.929,8.014,8.014,0,0,1,1.888-2.492,9.579,9.579,0,0,1,2.9-1.758A9.787,9.787,0,0,1,45.051,0,9.388,9.388,0,0,1,47.243.24c.628.151,1.183.31,1.662.476s.9.322,1.265.474a2.618,2.618,0,0,0,1,.229,1.023,1.023,0,0,0,.7-.171A2.027,2.027,0,0,0,52.23.62h.6V7.847h-.5q-.455-1.329-.966-2.625a9.769,9.769,0,0,0-1.3-2.349,6.042,6.042,0,0,0-2-1.693A6.508,6.508,0,0,0,45,.539a7.823,7.823,0,0,0-2.664.427A6.144,6.144,0,0,0,40.4,2.07a4.887,4.887,0,0,0-1.209,1.52A3.815,3.815,0,0,0,38.759,5.3a3.42,3.42,0,0,0,.717,2.2A6.031,6.031,0,0,0,41.31,9,13.9,13.9,0,0,0,43.9,10.081q1.455.457,2.99.95t2.99,1.085a10.23,10.23,0,0,1,2.588,1.495A7.254,7.254,0,0,1,54.289,15.83ZM55.412.857H67.773v.521H64.318V26.849h3.455v.521H55.412v-.521H58.87V1.378H55.412ZM94.624,18.116H92.232v8.711H91.57a.9.9,0,0,0-.427-.666,1.528,1.528,0,0,0-.792-.214,4.014,4.014,0,0,0-1.674.361l-1.709.782a16.949,16.949,0,0,1-2.116.779,10.137,10.137,0,0,1-2.883.348,12.921,12.921,0,0,1-5.19-1.085,14.158,14.158,0,0,1-4.4-2.967,14.563,14.563,0,0,1-3.037-4.432,14.024,14.024,0,0,1,.13-11.373,15.054,15.054,0,0,1,3.257-4.485,14.531,14.531,0,0,1,4.437-2.868A12.573,12.573,0,0,1,81.968,0,9.885,9.885,0,0,1,84.1.229q1.032.227,1.922.476t1.585.474a3.87,3.87,0,0,0,1.177.228,1.225,1.225,0,0,0,.736-.171,1.475,1.475,0,0,0,.4-.628h.626V8.37h-.559a13.285,13.285,0,0,0-2.873-5.8A6.518,6.518,0,0,0,82,.535a7.37,7.37,0,0,0-4.086,1.008,6.776,6.776,0,0,0-2.376,2.623,11.018,11.018,0,0,0-1.085,3.69,33.788,33.788,0,0,0-.258,4.2v3.31a32.324,32.324,0,0,0,.442,5.819,10.652,10.652,0,0,0,1.379,3.8,5.323,5.323,0,0,0,2.431,2.074A9.116,9.116,0,0,0,82,27.695a5,5,0,0,0,2.687-.628,4.136,4.136,0,0,0,1.527-1.709A7.424,7.424,0,0,0,86.9,22.8q.148-1.483.148-3.234V18.116H83.255v-.532H94.624ZM145.771.861V7.727h-.485a16.394,16.394,0,0,0-1.23-3.152,6.327,6.327,0,0,0-1.531-1.923,5.093,5.093,0,0,0-1.942-.976A9.8,9.8,0,0,0,138.12,1.4h-1.344V26.842h3.432v.528H127.941v-.525h3.418V1.386h-1.34a9.82,9.82,0,0,0-2.462.282,5.088,5.088,0,0,0-1.942.976,6.3,6.3,0,0,0-1.529,1.923,16.315,16.315,0,0,0-1.232,3.152h-.485V1.382h-3.1V26.849h3.5v.521h-12.5v-.521h3.494V14.114H102.781V26.849h3.494v.521h-12.5v-.521H97.27V1.382H93.776V.861h12.5v.521h-3.494v12.21h10.977V1.382h-3.494V.861h35.507Z" fill="#ff531b"></path>
    </symbol></defs>
    <title>main-logo</title>    <use xlink:href="#main-logo"></use>
  </svg>