<svg xmlns:xlink="http://www.w3.org/1999/xlink" width="126" height="42" viewBox="0 0 126 42" xmlns="http://www.w3.org/2000/svg" class="fill-current w-32"><path d="M48.303 2.39648H45.898L36.3357 30.5979L26.0608 2.39648H19.0241L23.2076 13.3437L17.3375 30.664L7.03383 2.39648H0L14.0792 39.2436H16.8548L24.5092 16.7515L33.1061 39.2436H36.0742L48.303 2.39648Z" fill="#121313"></path><path d="M117.925 2.39936L105.426 31.6265L93.0534 2.39936L85.2266 2.39648V39.0339H87.9878V6.56564L102.015 39.6028H104.65L119.522 5.96799V39.0339H125.999V2.39648L117.925 2.39936Z" fill="#121313"></path><path d="M81.9974 32.1641L81.5807 31.7935C72.527 37.8734 61.9188 36.3821 56.267 28.2507C51.5519 21.4668 50.4658 9.50531 58.0657 5.50568C64.8265 1.94566 73.3114 6.37054 77.8885 13.4446L82.0807 6.97968C62.5854 -7.68563 41.2052 6.70097 46.8167 26.5353C51.6898 43.7665 74.5527 45.614 82.0002 32.1613L81.9974 32.1641Z" fill="#121313"></path></svg>